<svg width="11" height="13" viewBox="0 0 11 13" fill="none" xmlns="http://www.w3.org/2000/svg">
<path d="M10.2143 5.28125H6.67857V1.625C6.67857 1.17635 6.32672 0.8125 5.89286 0.8125H5.10714C4.67328 0.8125 4.32143 1.17635 4.32143 1.625V5.28125H0.785714C0.351853 5.28125 0 5.6451 0 6.09375V6.90625C0 7.3549 0.351853 7.71875 0.785714 7.71875H4.32143V11.375C4.32143 11.8237 4.67328 12.1875 5.10714 12.1875H5.89286C6.32672 12.1875 6.67857 11.8237 6.67857 11.375V7.71875H10.2143C10.6481 7.71875 11 7.3549 11 6.90625V6.09375C11 5.6451 10.6481 5.28125 10.2143 5.28125Z" fill="white"/>
</svg>
