<svg width="20" height="20" viewBox="0 0 20 20" fill="none" xmlns="http://www.w3.org/2000/svg">
<g clip-path="url(#clip0)">
<path d="M6.4798 19.88C6.4798 19.88 3.7398 15 2.58647 12.8867C1.05313 10.0733 0.7998 8.88666 1.8598 8.29999C2.5198 7.93332 3.43313 8.08666 3.99313 9.05999L5.2998 11.14V2.98666C5.2998 2.98666 5.2198 0.833325 6.75313 0.833325C8.38647 0.833325 8.24647 2.98666 8.24647 2.98666V6.94666C8.24647 6.94666 9.10647 6.32666 10.1131 6.60666C10.6265 6.74666 11.2265 6.99332 11.5465 7.80666C11.5465 7.80666 13.5931 6.81332 14.6131 8.92666C14.6131 8.92666 16.9731 8.45999 16.9731 10.9067C16.9731 13.3533 14.0265 19.88 14.0265 19.88H6.4798ZM16.6598 0.0333252L15.9531 0.739992L17.5598 2.32666H10.5665V3.32666H17.5665L15.9531 4.91999L16.6598 5.62666L19.4931 2.82666L16.6598 0.0333252Z" fill="#DBDBDB"/>
<rect x="10" y="-1" width="10" height="7" fill="white"/>
<path d="M13.5 1L11 3.5L13.5 6" stroke="#DBDBDB"/>
<path d="M11 3.5H19M19 3.5L16.5 1M19 3.5L16.5 6" stroke="#D9D9D9"/>
</g>
<defs>
<clipPath id="clip0">
<rect width="20" height="20" fill="white"/>
</clipPath>
</defs>
</svg>
